<svg width="139" height="50" viewBox="0 0 139 50" fill="none" xmlns="http://www.w3.org/2000/svg">
<path d="M24.9609 37.1289C23.6589 38.2487 22.2005 39.1081 20.5859 39.707C18.9714 40.306 17.2982 40.6055 15.5664 40.6055C14.2383 40.6055 12.9557 40.4297 11.7188 40.0781C10.4948 39.7396 9.34245 39.2578 8.26172 38.6328C7.19401 37.9948 6.21745 37.2331 5.33203 36.3477C4.44661 35.4622 3.6849 34.4857 3.04688 33.418C2.42188 32.3372 1.93359 31.1849 1.58203 29.9609C1.24349 28.724 1.07422 27.4414 1.07422 26.1133C1.07422 24.7852 1.24349 23.5026 1.58203 22.2656C1.93359 21.0286 2.42188 19.8763 3.04688 18.8086C3.6849 17.7279 4.44661 16.7448 5.33203 15.8594C6.21745 14.974 7.19401 14.2188 8.26172 13.5938C9.34245 12.9557 10.4948 12.4674 11.7188 12.1289C12.9557 11.7773 14.2383 11.6016 15.5664 11.6016C17.2982 11.6016 18.9714 11.901 20.5859 12.5C22.2005 13.0859 23.6589 13.9453 24.9609 15.0781L21.9922 19.9609C21.1719 19.0755 20.2018 18.3984 19.082 17.9297C17.9622 17.4479 16.7904 17.207 15.5664 17.207C14.3294 17.207 13.1706 17.4414 12.0898 17.9102C11.0091 18.3789 10.0651 19.0169 9.25781 19.8242C8.45052 20.6185 7.8125 21.5625 7.34375 22.6562C6.875 23.737 6.64062 24.8893 6.64062 26.1133C6.64062 27.3372 6.875 28.4896 7.34375 29.5703C7.8125 30.638 8.45052 31.5755 9.25781 32.3828C10.0651 33.1901 11.0091 33.8281 12.0898 34.2969C13.1706 34.7656 14.3294 35 15.5664 35C16.7904 35 17.9622 34.7656 19.082 34.2969C20.2018 33.8151 21.1719 33.1315 21.9922 32.2461L24.9609 37.1289ZM54.8438 26.1133C54.8438 27.4414 54.668 28.724 54.3164 29.9609C53.9779 31.1849 53.4961 32.3372 52.8711 33.418C52.2461 34.4857 51.4909 35.4622 50.6055 36.3477C49.7201 37.2331 48.7435 37.9948 47.6758 38.6328C46.6081 39.2578 45.4557 39.7396 44.2188 40.0781C42.9818 40.4297 41.6992 40.6055 40.3711 40.6055C39.043 40.6055 37.7604 40.4297 36.5234 40.0781C35.2995 39.7396 34.1471 39.2578 33.0664 38.6328C31.9987 37.9948 31.0221 37.2331 30.1367 36.3477C29.2513 35.4622 28.4896 34.4857 27.8516 33.418C27.2266 32.3372 26.7383 31.1849 26.3867 29.9609C26.0482 28.724 25.8789 27.4414 25.8789 26.1133C25.8789 24.7852 26.0482 23.5026 26.3867 22.2656C26.7383 21.0286 27.2266 19.8763 27.8516 18.8086C28.4896 17.7409 29.2513 16.7643 30.1367 15.8789C31.0221 14.9935 31.9987 14.2383 33.0664 13.6133C34.1471 12.9883 35.2995 12.5065 36.5234 12.168C37.7604 11.8164 39.043 11.6406 40.3711 11.6406C41.6992 11.6406 42.9818 11.8164 44.2188 12.168C45.4557 12.5065 46.6081 12.9883 47.6758 13.6133C48.7435 14.2383 49.7201 14.9935 50.6055 15.8789C51.4909 16.7643 52.2461 17.7409 52.8711 18.8086C53.4961 19.8763 53.9779 21.0286 54.3164 22.2656C54.668 23.5026 54.8438 24.7852 54.8438 26.1133ZM49.2773 26.1133C49.2773 24.8893 49.043 23.737 48.5742 22.6562C48.1055 21.5625 47.4674 20.6185 46.6602 19.8242C45.8659 19.0169 44.9219 18.3789 43.8281 17.9102C42.7474 17.4414 41.5951 17.207 40.3711 17.207C39.1341 17.207 37.9753 17.4414 36.8945 17.9102C35.8138 18.3789 34.8698 19.0169 34.0625 19.8242C33.2552 20.6185 32.6172 21.5625 32.1484 22.6562C31.6797 23.737 31.4453 24.8893 31.4453 26.1133C31.4453 27.3372 31.6797 28.4896 32.1484 29.5703C32.6172 30.638 33.2552 31.5755 34.0625 32.3828C34.8698 33.1901 35.8138 33.8281 36.8945 34.2969C37.9753 34.7656 39.1341 35 40.3711 35C41.5951 35 42.7474 34.7656 43.8281 34.2969C44.9219 33.8281 45.8659 33.1901 46.6602 32.3828C47.4674 31.5755 48.1055 30.638 48.5742 29.5703C49.043 28.4896 49.2773 27.3372 49.2773 26.1133ZM86.3281 40H80.7422V20C80.7422 19.6094 80.6641 19.2448 80.5078 18.9062C80.3646 18.5677 80.1628 18.2747 79.9023 18.0273C79.6549 17.7669 79.362 17.5651 79.0234 17.4219C78.6849 17.2786 78.3203 17.207 77.9297 17.207C77.5391 17.207 77.1745 17.2786 76.8359 17.4219C76.4974 17.5651 76.1979 17.7669 75.9375 18.0273C75.6901 18.2747 75.4948 18.5677 75.3516 18.9062C75.2083 19.2448 75.1367 19.6094 75.1367 20V40H69.5312V20C69.5312 19.6094 69.4596 19.2448 69.3164 18.9062C69.1732 18.5677 68.9714 18.2747 68.7109 18.0273C68.4635 17.7669 68.1706 17.5651 67.832 17.4219C67.4935 17.2786 67.1289 17.207 66.7383 17.207C66.3477 17.207 65.9831 17.2786 65.6445 17.4219C65.306 17.5651 65.0065 17.7669 64.7461 18.0273C64.4987 18.2747 64.3034 18.5677 64.1602 18.9062C64.0169 19.2448 63.9453 19.6094 63.9453 20V40H58.3398V20C58.3398 18.8411 58.5547 17.7539 58.9844 16.7383C59.4271 15.7096 60.026 14.8177 60.7812 14.0625C61.5495 13.2943 62.4414 12.6953 63.457 12.2656C64.4857 11.8229 65.5794 11.6016 66.7383 11.6016C67.7799 11.6016 68.7826 11.7904 69.7461 12.168C70.7096 12.5326 71.5755 13.0664 72.3438 13.7695C73.112 13.0664 73.9714 12.5326 74.9219 12.168C75.8854 11.7904 76.888 11.6016 77.9297 11.6016C79.0885 11.6016 80.1758 11.8229 81.1914 12.2656C82.2201 12.6953 83.112 13.2943 83.8672 14.0625C84.6354 14.8177 85.2344 15.7096 85.6641 16.7383C86.1068 17.7539 86.3281 18.8411 86.3281 20V40ZM110.547 40H91.3477V11.9922H110.547V17.5977H96.9531V23.2031H106.152V28.8086H96.9531V34.3945H110.547V40ZM136.914 25.9961C136.914 27.2852 136.745 28.5286 136.406 29.7266C136.081 30.9115 135.612 32.0247 135 33.0664C134.388 34.0951 133.659 35.0391 132.812 35.8984C131.966 36.7448 131.022 37.474 129.98 38.0859C128.939 38.6979 127.819 39.1732 126.621 39.5117C125.436 39.8372 124.199 40 122.91 40H114.473V11.9922H122.91C124.199 11.9922 125.436 12.1615 126.621 12.5C127.819 12.8255 128.939 13.2943 129.98 13.9062C131.022 14.5182 131.966 15.2539 132.812 16.1133C133.659 16.9596 134.388 17.9036 135 18.9453C135.612 19.974 136.081 21.0872 136.406 22.2852C136.745 23.4701 136.914 24.707 136.914 25.9961ZM131.309 25.9961C131.309 24.8372 131.087 23.75 130.645 22.7344C130.215 21.7188 129.616 20.8333 128.848 20.0781C128.092 19.3099 127.201 18.7044 126.172 18.2617C125.156 17.819 124.069 17.5977 122.91 17.5977H120.117V34.3945H122.91C124.069 34.3945 125.156 34.1797 126.172 33.75C127.201 33.3073 128.092 32.7083 128.848 31.9531C129.616 31.1849 130.215 30.293 130.645 29.2773C131.087 28.2487 131.309 27.1549 131.309 25.9961Z" fill="white"/>
<circle cx="16" cy="26" r="6" fill="#CB995A"/>
</svg>
